<svg width="100%" viewBox="0 0 680 520" xmlns="http://www.w3.org/2000/svg">
<defs>
  <linearGradient id="g-main" x1="229" y1="0" x2="451" y2="0" gradientUnits="userSpaceOnUse">
    <stop offset="0%" stop-color="#061E44"/>
    <stop offset="22%" stop-color="#0D3E7A"/>
    <stop offset="55%" stop-color="#1A6DBF"/>
    <stop offset="85%" stop-color="#3EACE0"/>
    <stop offset="100%" stop-color="#7EC8EE"/>
  </linearGradient>
  <linearGradient id="g-fold-v" x1="0" y1="0" x2="1" y2="0">
    <stop offset="0%" stop-color="#000" stop-opacity="0.18"/>
    <stop offset="40%" stop-color="#000" stop-opacity="0.06"/>
    <stop offset="100%" stop-color="#000" stop-opacity="0"/>
  </linearGradient>
  <linearGradient id="g-shine-top" x1="0" y1="78" x2="0" y2="112" gradientUnits="userSpaceOnUse">
    <stop offset="0%" stop-color="#F0FAFF" stop-opacity="0.48"/>
    <stop offset="100%" stop-color="#F0FAFF" stop-opacity="0"/>
  </linearGradient>
  <linearGradient id="g-shine-mid" x1="0" y1="234" x2="0" y2="264" gradientUnits="userSpaceOnUse">
    <stop offset="0%" stop-color="#F0FAFF" stop-opacity="0.35"/>
    <stop offset="100%" stop-color="#F0FAFF" stop-opacity="0"/>
  </linearGradient>
  <linearGradient id="g-shine-stem" x1="229" y1="0" x2="261" y2="0" gradientUnits="userSpaceOnUse">
    <stop offset="0%" stop-color="#F0FAFF" stop-opacity="0"/>
    <stop offset="40%" stop-color="#F0FAFF" stop-opacity="0.2"/>
    <stop offset="100%" stop-color="#F0FAFF" stop-opacity="0"/>
  </linearGradient>
  <clipPath id="f-clip">
    <path d="M 245,78 L 435,78 A 16,16 0 0,1 451,94 A 16,16 0 0,1 435,110 L 267,110 A 6,6 0 0,0 261,116 L 261,228 A 6,6 0 0,1 267,234 L 401,234 A 14,14 0 0,1 415,248 A 14,14 0 0,1 401,262 L 267,262 A 6,6 0 0,0 261,268 L 261,402 A 16,16 0 0,1 245,418 A 16,16 0 0,1 229,402 L 229,94 A 16,16 0 0,1 245,78 Z"/>
  </clipPath>
  <radialGradient id="g-shadow" cx="50%" cy="50%" r="50%">
    <stop offset="0%" stop-color="#061E44" stop-opacity="0.12"/>
    <stop offset="100%" stop-color="#061E44" stop-opacity="0"/>
  </radialGradient>
</defs>

<ellipse cx="340" cy="426" rx="68" ry="6" fill="url(#g-shadow)"/>

<path d="M 245,78 L 435,78 A 16,16 0 0,1 451,94 A 16,16 0 0,1 435,110 L 267,110 A 6,6 0 0,0 261,116 L 261,228 A 6,6 0 0,1 267,234 L 401,234 A 14,14 0 0,1 415,248 A 14,14 0 0,1 401,262 L 267,262 A 6,6 0 0,0 261,268 L 261,402 A 16,16 0 0,1 245,418 A 16,16 0 0,1 229,402 L 229,94 A 16,16 0 0,1 245,78 Z" fill="url(#g-main)" stroke="#FF8C6B" stroke-width="1.6" stroke-opacity="0.65"/>

<g clip-path="url(#f-clip)">
  <rect x="258" y="78" width="8" height="32" fill="url(#g-fold-v)" opacity="0.7"/>
  <rect x="258" y="234" width="8" height="28" fill="url(#g-fold-v)" opacity="0.6"/>

  <path d="M 261,110 Q 264,113 267,110" fill="none" stroke="#0A2D5E" stroke-width="0.6" opacity="0.35"/>
  <path d="M 261,262 Q 264,265 267,262" fill="none" stroke="#0A2D5E" stroke-width="0.5" opacity="0.3"/>
  <path d="M 261,228 Q 264,231 267,234" fill="none" stroke="#0A2D5E" stroke-width="0.5" opacity="0.3"/>
  <path d="M 261,116 L 261,228" fill="none" stroke="#0A2D5E" stroke-width="0.4" opacity="0.12"/>
  <path d="M 261,268 L 261,402" fill="none" stroke="#0A2D5E" stroke-width="0.4" opacity="0.1"/>

  <rect x="229" y="78" width="222" height="10" fill="url(#g-shine-top)"/>
  <rect x="229" y="234" width="186" height="9" fill="url(#g-shine-mid)"/>
  <rect x="229" y="78" width="32" height="340" fill="url(#g-shine-stem)"/>

  <rect x="236" y="84" width="5" height="70" rx="2.5" fill="#F0FAFF" opacity="0.15"/>
</g>

<text x="340" y="468" text-anchor="middle" font-family="'Helvetica Neue', Helvetica, Arial, sans-serif" font-size="28" font-weight="300" letter-spacing="12" fill="#0D3E7A" opacity="0.78">Ferdi</text>
</svg>